<?xml version="1.0" encoding="utf-8"?>
<!-- Generator: Adobe Illustrator 15.1.0, SVG Export Plug-In . SVG Version: 6.00 Build 0)  -->
<!DOCTYPE svg PUBLIC "-//W3C//DTD SVG 1.1//EN" "http://www.w3.org/Graphics/SVG/1.1/DTD/svg11.dtd">
<svg version="1.1" id="Layer_1" xmlns="http://www.w3.org/2000/svg" xmlns:xlink="http://www.w3.org/1999/xlink" x="0px" y="0px"
	 width="100px" height="100px" viewBox="0 0 100 100" enable-background="new 0 0 100 100" xml:space="preserve">
<g>
	<path d="M49.856,0.017c-27.523,0-49.838,22.321-49.838,49.84c0,27.529,22.314,49.84,49.838,49.84
		c27.529,0,49.84-22.312,49.84-49.84C99.696,22.337,77.385,0.017,49.856,0.017z M54.841,89.378V74.776h-9.966v14.602
		C26.875,87.13,12.593,72.839,10.332,54.84h14.607v-9.966H10.332c2.261-17.999,16.543-32.28,34.542-34.548v14.611h9.966V10.326
		c17.999,2.268,32.283,16.549,34.547,34.548H74.775v9.966h14.612C87.124,72.839,72.84,87.13,54.841,89.378z"/>
</g>
</svg>
