<?xml version="1.0" encoding="utf-8"?>
<!-- Generator: Adobe Illustrator 16.0.0, SVG Export Plug-In . SVG Version: 6.00 Build 0)  -->
<!DOCTYPE svg PUBLIC "-//W3C//DTD SVG 1.1 Tiny//EN" "http://www.w3.org/Graphics/SVG/1.1/DTD/svg11-tiny.dtd">
<svg version="1.1" baseProfile="tiny" id="Layer_1" xmlns="http://www.w3.org/2000/svg" xmlns:xlink="http://www.w3.org/1999/xlink"
	 x="0px" y="0px" width="100px" height="100px" viewBox="0 0 100 100" xml:space="preserve">
<g>
	<path d="M99.004,16.173C99.004,7.243,91.764,0,82.833,0c-8.935,0-16.175,7.243-16.175,16.173c0,7.526,5.165,13.795,12.128,15.603
		v12.697H66.085c-1.804-6.964-8.073-12.132-15.6-12.132c-7.528,0-13.799,5.168-15.601,12.132H14.102v20.772
		c-6.962,1.81-12.128,8.078-12.128,15.604c0,8.938,7.24,16.179,16.175,16.179c8.931,0,16.171-7.24,16.171-16.179
		c0-7.525-5.168-13.802-12.131-15.604V52.557h12.697c1.802,6.964,8.071,12.129,15.601,12.129c7.526,0,13.8-5.165,15.6-12.129h20.788
		V31.776C93.836,29.976,99.004,23.702,99.004,16.173z M26.233,80.849c0,4.47-3.619,8.093-8.085,8.093
		c-4.469,0-8.089-3.623-8.089-8.093c0-4.462,3.621-8.085,8.089-8.085C22.614,72.764,26.233,76.387,26.233,80.849z M50.485,56.6
		c-4.468,0-8.089-3.625-8.089-8.084c0-4.469,3.621-8.09,8.089-8.09c4.467,0,8.088,3.621,8.088,8.09
		C58.573,52.975,54.952,56.6,50.485,56.6z M82.833,24.258c-4.469,0-8.089-3.624-8.089-8.085c0-4.469,3.62-8.085,8.089-8.085
		c4.467,0,8.085,3.616,8.085,8.085C90.918,20.635,87.3,24.258,82.833,24.258z"/>
</g>
</svg>
