<?xml version="1.0" encoding="utf-8"?>
<!-- Generator: Adobe Illustrator 15.1.0, SVG Export Plug-In . SVG Version: 6.00 Build 0)  -->
<!DOCTYPE svg PUBLIC "-//W3C//DTD SVG 1.1//EN" "http://www.w3.org/Graphics/SVG/1.1/DTD/svg11.dtd">
<svg version="1.1" id="Layer_1" xmlns="http://www.w3.org/2000/svg" xmlns:xlink="http://www.w3.org/1999/xlink" x="0px" y="0px"
	 width="100px" height="100px" viewBox="0 0 100 100" enable-background="new 0 0 100 100" xml:space="preserve">
<g>
	<path d="M67.212,74.555c-5.224,3.656-11.323,5.494-17.567,5.409c-0.824-0.014-1.646-0.05-2.454-0.124
		c-0.332-0.031-0.663-0.087-0.994-0.13c-0.639-0.08-1.274-0.167-1.898-0.289c-0.383-0.075-0.756-0.167-1.133-0.259
		c-0.607-0.143-1.216-0.284-1.809-0.463c-0.287-0.087-0.566-0.192-0.85-0.284c-0.687-0.229-1.368-0.469-2.031-0.746
		c-0.15-0.062-0.296-0.129-0.445-0.197c-0.777-0.34-1.545-0.703-2.286-1.104c-0.033-0.019-0.064-0.037-0.099-0.056
		c-2.514-1.375-4.811-3.096-6.824-5.105c-0.034-0.038-0.064-0.074-0.099-0.105c-0.625-0.629-1.223-1.289-1.79-1.974
		c-0.122-0.141-0.234-0.302-0.354-0.45c-4.104-5.13-6.575-11.625-6.575-18.69h7.894l-12.63-18.945L2.637,49.986h7.894
		c0,8.305,2.591,16.001,6.988,22.366c0.056,0.093,0.092,0.186,0.152,0.272c0.455,0.653,0.961,1.251,1.449,1.867
		c0.184,0.234,0.354,0.475,0.543,0.704c0.722,0.868,1.484,1.695,2.271,2.497c0.073,0.074,0.143,0.154,0.219,0.229
		c2.64,2.646,5.621,4.872,8.866,6.647c0.088,0.05,0.173,0.105,0.263,0.148c0.936,0.506,1.895,0.963,2.872,1.388
		c0.242,0.104,0.479,0.222,0.725,0.327c0.836,0.346,1.69,0.647,2.553,0.931c0.408,0.142,0.812,0.284,1.225,0.407
		c0.756,0.229,1.526,0.413,2.301,0.599c0.516,0.116,1.028,0.247,1.552,0.351c0.217,0.044,0.423,0.105,0.639,0.142
		c0.732,0.131,1.467,0.204,2.199,0.291c0.265,0.03,0.523,0.08,0.791,0.104c1.314,0.13,2.63,0.216,3.938,0.216
		c8.027,0,15.853-2.454,22.568-7.16c2.141-1.498,2.665-4.452,1.16-6.592C72.306,73.574,69.346,73.056,67.212,74.555z"/>
	<path d="M89.476,49.986c-0.006-8.279-2.577-15.962-6.956-22.314c-0.062-0.106-0.105-0.217-0.18-0.319
		c-0.542-0.775-1.135-1.498-1.727-2.226c-0.068-0.089-0.13-0.181-0.203-0.268C76.407,20,71.375,16.244,65.677,13.79
		c-0.16-0.069-0.314-0.144-0.47-0.21c-0.912-0.378-1.843-0.709-2.78-1.02c-0.34-0.112-0.673-0.234-1.012-0.338
		c-0.82-0.245-1.647-0.445-2.486-0.64c-0.461-0.107-0.918-0.224-1.387-0.314c-0.229-0.045-0.45-0.114-0.678-0.154
		c-0.623-0.109-1.246-0.157-1.875-0.237c-0.433-0.054-0.858-0.122-1.289-0.163c-1.049-0.099-2.091-0.142-3.133-0.159
		c-0.192-0.002-0.374-0.027-0.562-0.027c-0.036,0-0.068,0.009-0.102,0.011c-8.017,0.006-15.827,2.427-22.535,7.124
		c-2.144,1.5-2.665,4.453-1.163,6.596c1.498,2.146,4.453,2.665,6.596,1.163c5.181-3.628,11.226-5.468,17.426-5.41
		c0.888,0.006,1.767,0.051,2.634,0.134c0.266,0.026,0.529,0.068,0.795,0.101c0.716,0.088,1.425,0.188,2.115,0.323
		c0.309,0.062,0.611,0.14,0.913,0.209c0.685,0.155,1.369,0.32,2.035,0.522c0.209,0.064,0.42,0.142,0.629,0.211
		c0.765,0.25,1.518,0.517,2.252,0.825c0.073,0.031,0.146,0.067,0.222,0.101c4.415,1.899,8.288,4.822,11.311,8.478
		c0.019,0.023,0.036,0.05,0.055,0.072c4.25,5.177,6.81,11.794,6.814,19h-7.898L84.739,68.93l12.624-18.943H89.476z"/>
</g>
</svg>
