<?xml version="1.0" encoding="utf-8"?>
<!-- Generator: Adobe Illustrator 16.0.0, SVG Export Plug-In . SVG Version: 6.00 Build 0)  -->
<!DOCTYPE svg PUBLIC "-//W3C//DTD SVG 1.1 Tiny//EN" "http://www.w3.org/Graphics/SVG/1.1/DTD/svg11-tiny.dtd">
<svg version="1.1" baseProfile="tiny" id="Layer_1" xmlns="http://www.w3.org/2000/svg" xmlns:xlink="http://www.w3.org/1999/xlink"
	 x="0px" y="0px" width="100px" height="100px" viewBox="0 0 100 100" xml:space="preserve">
<g>
	<path d="M78.399,49.749c0,15.544-12.601,28.146-28.145,28.146c-15.547,0-28.145-12.602-28.145-28.146
		c0-15.546,12.597-28.147,28.145-28.147C65.799,21.602,78.399,34.203,78.399,49.749z"/>
	<image width="24" height="30" xlink:href="6A8957B2B04AA626.png"  transform="matrix(1 0 0 1 38.5 0.5)">
	</image>
	<image width="25" height="31" xlink:href="6A8957B2B04AA62A.png"  transform="matrix(1 0 0 1 25.5 7.5)">
	</image>
	<image width="31" height="24" xlink:href="6A8957B2B04AA62D.png"  transform="matrix(1 0 0 1 7.5 25.5)">
	</image>
	<image width="29" height="24" xlink:href="6A8957B2B04AA62E.png"  transform="matrix(1 0 0 1 1.5 37.5)">
	</image>
	<image width="31" height="25" xlink:href="6A8957B2B04AA62C.png"  transform="matrix(1 0 0 1 7.5 49.5)">
	</image>
	<image width="25" height="31" xlink:href="6A8957B2B04AA62B.png"  transform="matrix(1 0 0 1 25.5 61.5)">
	</image>
	<image width="24" height="29" xlink:href="6A8957B2B04AA625.png"  transform="matrix(1 0 0 1 38.5 69.5)">
	</image>
	<image width="24" height="31" xlink:href="6A8957B2B04AA627.png"  transform="matrix(1 0 0 1 50.5 61.5)">
	</image>
	<image width="31" height="25" xlink:href="6A8957B2B04AA624.png"  transform="matrix(1 0 0 1 61.5 49.5)">
	</image>
	<image width="29" height="24" xlink:href="65D9ACD37ACA03D9.png"  transform="matrix(1 0 0 1 69.5 37.5)">
	</image>
	<image width="31" height="24" xlink:href="65D9ACD37ACA03DF.png"  transform="matrix(1 0 0 1 61.5 25.5)">
	</image>
	<image width="24" height="31" xlink:href="65D9ACD37ACA03D8.png"  transform="matrix(1 0 0 1 50.5 7.5)">
	</image>
</g>
</svg>
